<svg xmlns="http://www.w3.org/2000/svg" width="80" height="94" viewBox="0 0 80 94"><g><g opacity=".79"><path fill="#ecf2f7" d="M29 0h21s3.041-.02 5 2c2.908 2.997 4.81 8.782 2 12-2.264 2.592-8 2-8 2v3s6.74-.593 12 2c5.093 2.51 8.95 10.064 12 29 1.637 10.16-2 19-2 19s6.617-1.25 8 5c.85 3.84-.506 11.195-4 15-4.574 4.98-12 5-12 5H13s-5.25-1.495-8-5C1.567 84.622-.205 77.85 0 75c.563-7.849 9-6 9-6s-3.164-9.947-1-20c4.48-20.816 6.044-25.625 12-28 4.847-1.934 11-2 11-2v-3s-5.552 1.014-8-3c-1.667-2.733-.06-7.313 2-10 1.8-2.349 4-3 4-3zm-3 8c-1.326 4.117 2 5 2 5h25s1.572-.472 2-4c.428-3.53-4-6-4-6H30s-2.674.881-4 5zm8 11h12v-3H34zM16 78s-2.902-2.406-5-5c-2.099-2.595-5.848-1.595-7 1-1.152 2.594.597 8.617 4 13 3.403 4.382 7 4 7 4h4V78zm46 0v13h4s5.89-1.874 8-7c2.11-5.127 3.396-11.777-1-12-4.396-.224-5.032 2.764-7 4-1.968 1.235-4 2-4 2zM22 91h37V78s-.844-.538-2-1c-1.332-.533-3-1-3-1v7s-.74.958-2 1c-1.26.04-1-1-1-1v-7h-3v7s-.529.999-2 1c-1.316 0-2-1-2-1v-7h-2v7s-.61.887-2 1c-1.39.113-2-1-2-1v-7h-2v7s-.652.958-2 1c-1.348.04-2-1-2-1v-7h-2v7s-.833.958-2 1c-1.412.05-2-1-2-1v-6c0-1.253-4-.515-4 0zm40-16s6.503-2.908 7-10c.497-7.093 1.756-13.206-1-22-2.756-8.795-3.511-18.798-10-20-6.489-1.204-30.05-2.144-35 0-5.376 2.327-8.232 9.616-10 16-3.507 12.663-1.858 27.041-1 29 2.282 5.205 6 7 6 7s15.776-2.136 23-2c7.224.135 21 2 21 2zM21 64c.03-4.098.386-28.618 4-33 1.877-2.277 7.6-2.904 15-3 7.4-.097 14.273 1.594 16 4 1.727 2.405 3 37 3 37s-.234 1.828-2 2c-1.767.17-2-2-2-2s-.432-31.798-2-35c-1.568-3.203-20.753-2.908-25-1-4.247 1.907-3 36-3 36s-.35 2.858-2 3c-1.65.14-2-2-2-2s-.03-1.903 0-6z"/></g></g></svg>